<svg width="98" height="98" viewBox="0 0 98 98" fill="none" xmlns="http://www.w3.org/2000/svg">
<path d="M49.0109 23.874C35.1062 23.874 23.8906 35.0922 23.8906 49C23.8906 62.9078 35.1062 74.126 49.0109 74.126C62.9157 74.126 74.1313 62.9078 74.1313 49C74.1313 35.0922 62.9157 23.874 49.0109 23.874ZM49.0109 65.3352C40.0253 65.3352 32.6794 58.0095 32.6794 49C32.6794 39.9905 40.0035 32.6648 49.0109 32.6648C58.0184 32.6648 65.3424 39.9905 65.3424 49C65.3424 58.0095 57.9965 65.3352 49.0109 65.3352ZM81.0181 22.8463C81.0181 26.1045 78.3945 28.7068 75.1588 28.7068C71.9013 28.7068 69.2996 26.0827 69.2996 22.8463C69.2996 19.6098 71.9232 16.9857 75.1588 16.9857C78.3945 16.9857 81.0181 19.6098 81.0181 22.8463ZM97.6557 28.7943C97.284 20.9438 95.4912 13.9898 89.7413 8.26052C84.0133 2.53118 77.0609 0.738034 69.2122 0.344416C61.1229 -0.114805 36.8771 -0.114805 28.7878 0.344416C20.961 0.716166 14.0086 2.50932 8.25867 8.23865C2.50876 13.968 0.73787 20.9219 0.344339 28.7724C-0.11478 36.8634 -0.11478 61.1147 0.344339 69.2057C0.716007 77.0562 2.50876 84.0102 8.25867 89.7395C14.0086 95.4688 20.9391 97.262 28.7878 97.6556C36.8771 98.1148 61.1229 98.1148 69.2122 97.6556C77.0609 97.2838 84.0133 95.4907 89.7413 89.7395C95.4694 84.0102 97.2621 77.0562 97.6557 69.2057C98.1148 61.1147 98.1148 36.8853 97.6557 28.7943ZM87.2052 77.8872C85.4999 82.1733 82.1987 85.4753 77.8917 87.2028C71.4422 89.7614 56.1382 89.1709 49.0109 89.1709C41.8837 89.1709 26.5578 89.7395 20.1302 87.2028C15.8451 85.4972 12.5438 82.1951 10.8166 77.8872C8.25867 71.4362 8.84897 56.1289 8.84897 49C8.84897 41.8711 8.28054 26.5419 10.8166 20.1128C12.5219 15.8267 15.8232 12.5247 20.1302 10.7972C26.5797 8.23865 41.8837 8.82907 49.0109 8.82907C56.1382 8.82907 71.464 8.26052 77.8917 10.7972C82.1768 12.5028 85.4781 15.8049 87.2052 20.1128C89.7632 26.5638 89.1729 41.8711 89.1729 49C89.1729 56.1289 89.7632 71.4581 87.2052 77.8872Z" fill="url(#paint0_linear_56_6)"/>
<defs>
<linearGradient id="paint0_linear_56_6" x1="49" y1="0" x2="49" y2="98" gradientUnits="userSpaceOnUse">
<stop stop-color="#8905DB"/>
<stop offset="0.436463" stop-color="#DB0585"/>
<stop offset="1" stop-color="#9237BD"/>
</linearGradient>
</defs>
</svg>
