<svg width="114" height="115" viewBox="0 0 114 115" fill="none" xmlns="http://www.w3.org/2000/svg">
<path d="M72.7223 41.6407C86.0254 55.0743 85.8428 76.6119 72.8025 89.8396C72.778 89.8665 72.749 89.8957 72.7223 89.9227L57.7598 105.016C44.563 118.329 23.0925 118.327 9.89763 105.016C-3.29921 91.7061 -3.29921 70.0448 9.89763 56.7344L18.1595 48.4001C20.3504 46.1899 24.1236 47.6589 24.2367 50.7823C24.381 54.7628 25.0886 58.762 26.3942 62.6239C26.8364 63.9316 26.5205 65.3781 25.5519 66.3551L22.638 69.2946C16.3979 75.5895 16.2021 85.8393 22.3809 92.1957C28.6206 98.6149 38.8766 98.653 45.1642 92.3103L60.1267 77.2188C66.4035 70.8868 66.3773 60.6523 60.1267 54.3468C59.3026 53.5171 58.4725 52.8725 57.8242 52.4221C57.3655 52.1044 56.9867 51.6829 56.7182 51.1913C56.4496 50.6997 56.2987 50.1516 56.2774 49.5907C56.1892 47.2173 57.0228 44.7715 58.882 42.896L63.5698 38.1669C64.7991 36.9268 66.7275 36.7745 68.153 37.7781C69.7854 38.9279 71.3144 40.2205 72.7223 41.6407ZM104.102 9.98377C90.9075 -3.32703 69.437 -3.32882 56.2402 9.98377L41.2777 25.0775C41.251 25.1045 41.222 25.1337 41.1975 25.1606C28.1574 38.3883 27.9746 59.9259 41.2777 73.3596C42.6855 74.7797 44.2144 76.0721 45.8468 77.2219C47.2723 78.2255 49.2009 78.073 50.43 76.8331L55.1178 72.104C56.977 70.2285 57.8106 67.7827 57.7224 65.4093C57.7011 64.8484 57.5502 64.3003 57.2816 63.8087C57.013 63.3171 56.6343 62.8956 56.1756 62.5779C55.5272 62.1275 54.6972 61.4829 53.8731 60.6532C47.6225 54.3477 47.5962 44.1132 53.8731 37.7812L68.8356 22.6897C75.1232 16.347 85.379 16.3851 91.6189 22.8043C97.7976 29.1607 97.6021 39.4105 91.3618 45.7054L88.4479 48.6449C87.4793 49.6219 87.1634 51.0684 87.6056 52.3761C88.9112 56.238 89.6188 60.2372 89.7631 64.2177C89.8764 67.3411 93.6493 68.8101 95.8403 66.5999L104.102 58.2656C117.299 44.9554 117.299 23.2941 104.102 9.98377Z" fill="#FF9C9C"/>
</svg>
