<svg width="115" height="83" viewBox="0 0 115 83" fill="none" xmlns="http://www.w3.org/2000/svg">
<path d="M112.597 12.9867C111.274 7.87484 107.378 3.84891 102.43 2.48265C93.4615 0 57.5 0 57.5 0C57.5 0 21.5387 0 12.5702 2.48265C7.62246 3.84912 3.72563 7.87484 2.40304 12.9867C0 22.2522 0 41.5839 0 41.5839C0 41.5839 0 60.9155 2.40304 70.181C3.72563 75.2929 7.62246 79.1511 12.5702 80.5173C21.5387 83 57.5 83 57.5 83C57.5 83 93.4613 83 102.43 80.5173C107.378 79.1511 111.274 75.2929 112.597 70.181C115 60.9155 115 41.5839 115 41.5839C115 41.5839 115 22.2522 112.597 12.9867ZM45.7386 59.1356V24.0322L75.7952 41.5843L45.7386 59.1356Z" fill="#D10000"/>
</svg>
